<?xml version="1.0" standalone="no"?><!DOCTYPE svg PUBLIC "-//W3C//DTD SVG 1.1//EN" "http://www.w3.org/Graphics/SVG/1.1/DTD/svg11.dtd"><svg t="1703928325809" class="icon" viewBox="0 0 1024 1024" version="1.1" xmlns="http://www.w3.org/2000/svg" p-id="25919" xmlns:xlink="http://www.w3.org/1999/xlink" width="32" height="32"><path d="M0 0m512 0l0 0q512 0 512 512l0 0q0 512-512 512l0 0q-512 0-512-512l0 0q0-512 512-512Z" fill="#F08198" p-id="25920"></path><path d="M309.290667 595.2c-13.141333-9.941333-27.946667-16.896-43.178667-23.04-31.104-12.245333-63.658667-16.64-96.853333-15.786667-7.850667 0-15.658667 0.597333-23.722667 1.024 0-0.64-0.64-1.450667-0.64-2.56-2.133333-23.637333-4.650667-47.274667-6.357333-70.485333a1087.146667 1087.146667 0 0 1-2.56-58.282667c-0.597333-37.376-0.597333-74.538667-0.597334-111.872 0-8.874667-0.64-7.808-7.381333-4.864-20.949333 8.448-41.685333 16.64-62.634667 24.704-0.64 0.64-1.706667 2.730667-1.28 3.797334 6.357333 23.637333 11.008 47.914667 14.208 71.978666 3.157333 20.906667 5.888 41.173333 8.874667 61.653334 2.56 17.92 4.224 35.882667 6.314667 54.058666 2.133333 18.346667 4.693333 36.693333 6.826666 55.338667l6.314667 52.565333c1.450667 12.672 2.730667 25.088 3.84 37.76 0.597333 9.941333 1.450667 19.84 1.664 29.354667 0 2.133333 0.64 3.2 2.730667 3.2 4.693333 0 8.874667 0.597333 13.354666 0 21.546667-2.133333 43.093333-3.626667 64.298667-6.784 16.256-2.56 32.128-6.314667 47.786667-11.605333 22.229333-7.381333 41.258667-20.053333 59.690666-34.645334 7.808-5.888 14.165333-13.056 16.896-22.186666 5.930667-14.933333 3.413333-25.088-7.594666-33.322667zM442.922667 611.285333c-1.066667-12.202667-2.176-25.002667-3.712-37.162666-1.536-16.810667-3.328-33.621333-4.864-50.602667-1.536-15.530667-2.176-30.890667-3.285334-46.421333-1.536-21.418667-3.285333-42.837333-4.864-64.256l-3.285333-47.445334c-0.426667-5.888-2.858667-7.338667-9.216-6.912-7.68 0.597333-15.274667 1.066667-22.912 1.450667-6.613333 0.64-13.226667 1.493333-19.584 2.133333 19.797333 100.352 28.586667 200.917333 38.954667 300.672 12.117333 1.024 23.082667 1.664 34.56 2.730667 2.176 0.426667 3.285333 0 3.285333-2.133333l-1.109333-11.52c-0.853333-13.866667-2.432-27.306667-3.968-40.533334zM378.112 621.568c-1.365333-12.501333-2.56-24.746667-3.882667-37.248-1.365333-14.165333-2.56-28.544-4.309333-42.666667-0.981333-8.746667-2.346667-17.066667-3.541333-25.429333-0.384-3.114667-2.346667-4.565333-5.461334-4.138667-5.504 0.597333-11.349333 0.597333-17.066666 1.450667-7.808 1.024-15.658667 2.474667-23.850667 3.541333 9.685333 53.802667 19.626667 107.605333 29.738667 161.322667 11.733333-1.706667 22.912-3.114667 34.261333-4.565333-0.426667-4.181333-0.981333-8.32-1.365333-12.074667-1.578667-13.738667-3.157333-27.093333-4.522667-40.192zM498.773333 673.365333c-0.426667-20.821333-1.024-41.045333-1.408-61.909333-0.426667-25.728 0-51.84 0-77.525333 0-5.717333-0.426667-10.965333-0.64-16.64 0-2.56-1.450667-4.650667-4.138666-4.650667-10.837333-0.426667-21.717333-0.64-32.554667-0.64-4.138667 0-7.893333 0.64-12.032 1.493333 0.426667 1.450667 0.426667 2.517333 0.426667 3.584 1.450667 17.664 3.114667 35.157333 4.565333 52.437334 1.450667 16.853333 3.072 34.133333 4.522667 50.986666 1.706667 18.346667 3.114667 36.650667 4.778666 54.997334 0 1.024 1.706667 2.730667 2.688 2.730666 11.008 0.426667 22.613333 0 34.218667 0-0.426667-2.346667-0.426667-3.84-0.426667-4.864zM358.4 484.693333c-1.792-20.053333-3.242667-39.04-4.821333-58.496-0.384-2.56-1.28-3.797333-3.072-3.797333-5.717333 0-11.605333 0-17.706667 0.426667 2.304 21.546667 4.48 42.24 6.826667 63.573333 6.613333-0.64 12.501333-0.853333 18.773333-1.706667zM512 494.890667v-54.741334c0-3.84-1.621333-4.949333-5.162667-4.949333H486.4v62.933333c8.96 0.426667 17.365333 0.64 25.6 1.066667v-4.309333zM332.8 496.256v-4.181333c-0.938667-10.922667-2.304-21.376-3.242667-32.298667-0.597333-6.912-1.322667-13.653333-1.92-20.736-0.384-1.706667 0.426667-4.224-2.304-3.797333-6.101333 0.64-12.032 2.133333-18.133333 2.730666 3.413333 20.778667 6.698667 40.874667 10.112 61.226667l15.488-2.944zM473.6 497.706667v-32.554667c0-8.533333-0.469333-17.536 0-26.112 0-3.2-1.194667-3.84-4.266667-3.84h-21.333333c1.92 22.272 3.584 43.221333 5.504 64 6.442667-0.426667 12.928-0.853333 20.096-1.493333zM757.333333 595.370667c-13.098667-9.941333-27.904-16.896-43.136-23.04-31.104-12.245333-63.658667-16.682667-96.853333-15.829334-7.808 0-15.658667 0.597333-23.68 1.024 0-0.64-0.64-1.450667-0.64-2.56-2.133333-23.637333-4.693333-47.274667-6.357333-70.528a1077.76 1077.76 0 0 1-2.56-58.282666c-0.597333-37.418667-0.597333-74.581333-0.597334-111.957334 0-8.874667-0.64-7.808-7.424-4.864-20.906667 8.448-41.642667 16.682667-62.592 24.704-0.64 0.426667-1.706667 2.56-1.450666 3.584 6.272 23.68 11.008 47.744 14.165333 72.021334 3.157333 20.906667 5.930667 41.216 8.874667 61.696 2.56 17.962667 4.266667 35.925333 6.357333 54.101333 2.133333 18.346667 4.650667 36.736 6.741333 55.338667 2.133333 17.749333 4.266667 34.858667 6.357334 52.608 1.493333 12.672 2.730667 25.130667 3.797333 37.802666 0.64 9.941333 1.493333 19.84 1.706667 29.354667 0 2.133333 0.64 3.2 2.730666 3.2 4.693333 0 8.874667 0.597333 13.312 0 21.589333-2.133333 43.178667-3.626667 64.298667-6.784 16.213333-2.474667 32.213333-6.4 47.786667-11.605333 22.186667-7.424 41.258667-20.053333 59.648-34.645334 7.808-5.930667 14.165333-13.098667 16.896-22.186666 6.144-14.805333 3.626667-24.917333-7.381334-33.152zM890.922667 611.285333c-1.066667-12.202667-2.176-25.002667-3.712-37.162666-1.536-16.810667-3.328-33.621333-4.864-50.602667-1.536-15.530667-2.176-30.890667-3.285334-46.421333-1.536-21.418667-3.285333-42.837333-4.864-64.256l-3.285333-47.445334c-0.426667-5.888-2.858667-7.338667-9.216-6.912-7.722667 0.597333-15.189333 1.024-22.912 1.450667-6.613333 0.64-13.226667 1.493333-19.584 2.133333 19.797333 100.352 28.586667 200.917333 38.954667 300.672 12.117333 1.024 23.082667 1.664 34.56 2.730667 2.176 0.426667 3.285333 0 3.285333-2.133333l-1.109333-11.52c-0.853333-13.866667-2.432-27.306667-3.968-40.533334zM826.112 621.568c-1.365333-12.501333-2.56-24.746667-3.882667-37.248-1.365333-14.165333-2.56-28.544-4.309333-42.666667-0.981333-8.746667-2.346667-17.066667-3.541333-25.429333-0.384-3.114667-2.346667-4.565333-5.461334-4.138667-5.504 0.597333-11.349333 0.597333-17.066666 1.450667-7.808 1.024-15.658667 2.474667-23.850667 3.541333 9.685333 53.802667 19.626667 107.605333 29.738667 161.322667 11.434667-1.621333 22.826667-3.114667 34.261333-4.565333-0.426667-4.181333-0.981333-8.32-1.365333-12.074667-1.578667-13.738667-3.157333-27.093333-4.522667-40.192zM959.573333 673.365333c-0.426667-20.821333-1.024-41.045333-1.408-61.909333-0.426667-25.728 0-51.84 0-77.525333 0-5.717333-0.426667-10.965333-0.64-16.64 0-2.56-1.450667-4.650667-4.138666-4.650667-10.837333-0.426667-21.717333-0.64-32.554667-0.64-4.138667 0-7.893333 0.64-12.032 1.493333 0.426667 1.450667 0.426667 2.517333 0.426667 3.584 1.450667 17.664 3.114667 35.157333 4.565333 52.437334 1.450667 16.853333 3.072 34.133333 4.522667 50.986666 1.706667 18.346667 3.114667 36.650667 4.778666 54.997334 0 1.024 1.706667 2.730667 2.688 2.730666 11.008 0.426667 22.613333 0 34.218667 0-0.426667-2.346667-0.426667-3.84-0.426667-4.864zM806.4 484.693333c-1.792-20.053333-3.242667-39.04-4.821333-58.496-0.384-2.56-1.28-3.797333-3.072-3.797333-5.717333 0-11.605333 0-17.706667 0.426667 2.304 21.546667 4.48 42.24 6.826667 63.573333 6.613333-0.64 12.501333-0.853333 18.773333-1.706667zM960 494.890667v-54.741334c0-3.84-1.621333-4.949333-5.162667-4.949333H934.4v62.933333c8.96 0.426667 17.365333 0.64 25.6 1.066667v-4.309333zM780.8 496.256v-4.181333c-0.938667-10.922667-2.304-21.376-3.242667-32.298667-0.597333-6.912-1.322667-13.653333-1.92-20.736-0.384-1.706667 0.426667-4.224-2.304-3.797333-6.101333 0.64-12.032 2.133333-18.133333 2.730666 3.413333 20.778667 6.698667 40.874667 10.112 61.226667l15.488-2.944zM934.4 497.706667v-32.554667c0-8.533333-0.469333-17.536 0-26.112 0-3.2-1.194667-3.84-4.266667-3.84h-21.333333c1.92 22.272 3.584 43.221333 5.504 64 6.442667-0.426667 12.928-0.853333 20.096-1.493333z" fill="#FFFFFF" p-id="25921"></path><path d="M193.493333 668.16c-3.072-21.76-6.101333-43.008-9.173333-64 11.818667 2.56 61.568 21.418667 64 24.32-18.133333 13.013333-36.096 26.24-54.826667 39.68z m440.32 0c-2.986667-21.333333-6.058667-42.666667-9.173333-64 11.818667 2.56 61.568 21.418667 64 24.32-18.133333 13.013333-36.096 26.24-54.826667 39.68z" fill="#F08198" p-id="25922"></path></svg>