<?xml version="1.0" standalone="no"?><!DOCTYPE svg PUBLIC "-//W3C//DTD SVG 1.1//EN" "http://www.w3.org/Graphics/SVG/1.1/DTD/svg11.dtd"><svg t="1703928537034" class="icon" viewBox="0 0 1024 1024" version="1.1" xmlns="http://www.w3.org/2000/svg" p-id="30397" xmlns:xlink="http://www.w3.org/1999/xlink" width="32" height="32"><path d="M0 512c0-159.061333 0-238.549333 25.984-301.269333a341.333333 341.333333 0 0 1 184.746667-184.746667C273.450667 0 352.938667 0 512 0c159.018667 0 238.549333 0 301.269333 25.984a341.333333 341.333333 0 0 1 184.746667 184.746667C1024 273.450667 1024 352.938667 1024 512c0 159.018667 0 238.549333-25.984 301.269333a341.333333 341.333333 0 0 1-184.746667 184.746667C750.549333 1024 671.018667 1024 512 1024c-159.061333 0-238.549333 0-301.269333-25.984a341.333333 341.333333 0 0 1-184.746667-184.746667C0 750.549333 0 671.018667 0 512z" fill="#27AD9A" p-id="30398"></path><path d="M763.306667 498.645333l-85.333334-106.666666A21.376 21.376 0 0 0 640 405.333333V469.333333h-170.666667a42.666667 42.666667 0 0 0 0 85.333334h170.624v64a21.333333 21.333333 0 0 0 37.973334 13.312l85.333333-106.666667a21.12 21.12 0 0 0 0-26.624zM554.666667 682.666667H383.616A42.496 42.496 0 0 1 341.333333 640V383.616a42.496 42.496 0 0 1 42.666667-42.325333h170.666667a42.666667 42.666667 0 0 0 0-85.290667H341.333333a85.333333 85.333333 0 0 0-85.333333 85.333333v341.333334a85.333333 85.333333 0 0 0 85.333333 85.333333h213.333334a42.666667 42.666667 0 0 0 0-85.333333z" fill="#FFFFFF" p-id="30399"></path></svg>