<?xml version="1.0" standalone="no"?><!DOCTYPE svg PUBLIC "-//W3C//DTD SVG 1.1//EN" "http://www.w3.org/Graphics/SVG/1.1/DTD/svg11.dtd"><svg t="1703928300606" class="icon" viewBox="0 0 1024 1024" version="1.1" xmlns="http://www.w3.org/2000/svg" p-id="24829" xmlns:xlink="http://www.w3.org/1999/xlink" width="32" height="32"><path d="M534.78 74.67h57.71v91.61c108.81 0.61 217.73-1.12 326.43 0.51 23.41-2.24 41.74 16 39.39 39.39 1.73 190.15-0.41 380.39 1 570.64-1 20.56 2 43.36-9.77 61.58-14.86 10.78-34.2 9.36-51.6 10.18-101.79-0.51-203.58-0.31-305.47-0.31v101.8h-63.3C374 921.77 218.61 895.92 63.38 868.64q-0.15-356.22 0-712.33c157.07-27.18 314.13-54.87 471.4-81.64z" fill="#DC2E1B" p-id="24830"></path><path d="M110.51 551.6V427.19h37.32q21.22 0 27.65 1.87 9.9 2.8 16.57 12.18t6.68 24.23q0 11.45-3.85 19.25A33.46 33.46 0 0 1 185.1 497a32.41 32.41 0 0 1-12.1 5.88q-8.34 1.79-24.12 1.79h-15.12v46.93z m23.25-103.37v35.31h12.73q13.75 0 18.38-1.95a15.53 15.53 0 0 0 7.27-6.11 17.74 17.74 0 0 0 2.63-9.67 16.84 16.84 0 0 0-3.7-11.2 15.77 15.77 0 0 0-9.34-5.52q-4.18-0.85-16.73-0.85zM217.74 427.19h42.51q14.37 0 21.92 2.38A38.25 38.25 0 0 1 299.52 441a55.26 55.26 0 0 1 11 20.15q3.77 11.93 3.78 29.41 0 15.36-3.54 26.47-4.32 13.58-12.34 22-6 6.37-16.33 9.93-7.71 2.64-20.59 2.63h-43.76z m23.26 21v82.41h17.36q9.74 0 14.07-1.18a21 21 0 0 0 9.38-5.18q3.73-3.65 6.08-12t2.37-22.78q0-14.43-2.37-22.16t-6.59-12a21.61 21.61 0 0 0-10.77-5.85q-4.88-1.19-19.09-1.19zM334.16 551.6V427.19h78.95v21h-55.7v29.45h48.08v21h-48.08v52.96z" fill="#FFFFFF" p-id="24831"></path><path d="M815.32 596.59a22.61 22.61 0 0 0-3.14-2.81c-4.66-3.52-14.15-8.66-32.86-13.11q-2.79-0.67-5.77-1.29c12.42 9.27 23 15 31.7 17 5.21 1.3 8.38 0.8 10.07 0.21zM708.86 409c2.43-8.52 4.09-23.81 0.57-26.88l-0.06 0.07c-4.7 6.5-10.64 33.19-8.67 49.29 3.73-6.64 4.91-11.08 8.16-22.48zM709.47 552.2A211.78 211.78 0 0 1 683 499.62a541.34 541.34 0 0 1-45.11 54.52c16.99-1.68 43.93-2.64 71.58-1.94z" fill="#FFFFFF" p-id="24832"></path><path d="M589.1 196.82v361.91c9.41-2.69 15.9-4.05 15.9-4.05 5.64-5.88 5-5.33 11.77-12.6a758.94 758.94 0 0 0 59.94-73.54c-0.18-2.36-6.65-91.12 21.44-102.93a18.67 18.67 0 0 1 11.64-0.85c5.13 1.22 10 4.54 12.5 8.45 6.34 10.07 6.22 24.77 1 45.35-8.28 32.57-20.9 50.71-20.9 50.71s4 40.18 42 84.79c17.45 1.48 32.46 3.69 44.64 6.59 20.94 5 33.39 11.92 38.06 21.19 2.64 5.24 3 11.7-0.16 19.32s-6.37 11.4-12.2 13.64c-4.88 1.88-11 2-18.13 0.26-21.32-5.08-49.59-25.37-68-41.71-29.78-2.34-65.92-2.6-107.48-0.8q-18.53 19.91-32.07 31.85v213.35H925V196.82z" fill="#FFFFFF" p-id="24833"></path></svg>